HIERARCHY
ROOT Hips
{
 OFFSET 0.000000 0.000000 0.000000
 CHANNELS 6 Xposition Yposition Zposition Yrotation Xrotation Zrotation
 JOINT Chest
 {
  OFFSET 0.000000 14.374500 -0.011500
  CHANNELS 3 Yrotation Xrotation Zrotation
  JOINT Chest2
  {
   OFFSET 0.000000 9.203400 0.023400
   CHANNELS 3 Yrotation Xrotation Zrotation
   JOINT Chest3
   {
    OFFSET 0.000000 9.162700 0.000000
    CHANNELS 3 Yrotation Xrotation Zrotation
    JOINT Chest4
    {
     OFFSET 0.000000 9.153300 0.000000
     CHANNELS 3 Yrotation Xrotation Zrotation
     JOINT Neck
     {
      OFFSET 0.000000 13.353600 0.000000
      CHANNELS 3 Yrotation Xrotation Zrotation
      JOINT Head
      {
       OFFSET 0.000000 8.573800 0.049400
       CHANNELS 3 Yrotation Xrotation Zrotation
       End Site
       {
        OFFSET 0.000000 16.219200 0.026100
       }
      }
     }
     JOINT RightCollar
     {
      OFFSET -2.497100 8.876100 0.000000
      CHANNELS 3 Yrotation Xrotation Zrotation
      JOINT RightShoulder
      {
       OFFSET -12.289200 0.000000 0.000000
       CHANNELS 3 Yrotation Xrotation Zrotation
       JOINT RightElbow
       {
        OFFSET 0.000000 -28.194900 0.000000
        CHANNELS 3 Yrotation Xrotation Zrotation
        JOINT RightWrist
        {
         OFFSET 0.000000 -23.009700 0.007900
         CHANNELS 3 Yrotation Xrotation Zrotation
         End Site
         {
          OFFSET 0.000000 -17.151500 0.000000
         }
        }
       }
      }
     }
     JOINT LeftCollar
     {
      OFFSET 2.497100 8.876100 0.000000
      CHANNELS 3 Yrotation Xrotation Zrotation
      JOINT LeftShoulder
      {
       OFFSET 12.289200 0.000000 0.000000
       CHANNELS 3 Yrotation Xrotation Zrotation
       JOINT LeftElbow
       {
        OFFSET 0.000000 -28.194900 0.000000
        CHANNELS 3 Yrotation Xrotation Zrotation
        JOINT LeftWrist
        {
         OFFSET 0.000000 -23.009700 0.007900
         CHANNELS 3 Yrotation Xrotation Zrotation
         End Site
         {
          OFFSET 0.000000 -17.151500 0.000000
         }
        }
       }
      }
     }
    }
   }
  }
 }
 JOINT RightHip
 {
  OFFSET -11.777600 0.056700 0.005700
  CHANNELS 3 Yrotation Xrotation Zrotation
  JOINT RightKnee
  {
   OFFSET 0.000000 -39.966000 -0.004200
   CHANNELS 3 Yrotation Xrotation Zrotation
   JOINT RightAnkle
   {
    OFFSET 0.000000 -41.981900 0.027400
    CHANNELS 3 Yrotation Xrotation Zrotation
    JOINT RightToe
    {
     OFFSET 0.000000 -9.910600 16.950100
     CHANNELS 3 Yrotation Xrotation Zrotation
     End Site
     {
      OFFSET 0.000000 -1.461000 6.191600
     }
    }
   }
  }
 }
 JOINT LeftHip
 {
  OFFSET 11.777600 0.056700 0.005700
  CHANNELS 3 Yrotation Xrotation Zrotation
  JOINT LeftKnee
  {
   OFFSET 0.000000 -39.966000 -0.004200
   CHANNELS 3 Yrotation Xrotation Zrotation
   JOINT LeftAnkle
   {
    OFFSET 0.000000 -41.981900 0.027400
    CHANNELS 3 Yrotation Xrotation Zrotation
    JOINT LeftToe
    {
     OFFSET 0.000000 -9.910600 16.950100
     CHANNELS 3 Yrotation Xrotation Zrotation
     End Site
     {
      OFFSET 0.000000 -1.461000 6.191600
     }
    }
   }
  }
 }
}
MOTION
Frames: 12
Frame Time: 0.008333
0.000000 91.618700 0.000000 0.000000 -5.767877 0.000000 0.000000 11.653817 0.000000 0.000000 -5.885947 0.000000 0.000000 -0.000000 0.000000 0.000000 -0.000000 0.000000 0.000000 12.528835 0.000000 0.000000 0.711642 0.000000 0.000000 -0.000000 0.000000 0.000000 0.000000 -90.000000 0.000000 -2.309062 0.000000 0.000000 2.309062 0.000000 0.000000 -0.000000 0.000000 0.000000 -0.000000 90.000000 0.000000 -2.309062 0.000000 0.000000 2.309062 0.000000 0.000000 8.520406 0.000000 0.000000 1.905762 0.000000 -0.000000 -4.658285 0.000000 0.000000 -0.000000 0.000000 0.000000 8.520406 0.000000 0.000000 1.905762 0.000000 -0.000000 -4.658285 0.000000 0.000000 -0.000000 0.000000
3.147818 152.679840 48.542055 175.979229 -48.329028 -2.892220 3.860124 28.305702 3.447163 0.531761 5.190598 0.521505 0.860088 8.176301 0.823707 2.828378 22.811268 2.766263 -0.095400 16.991747 -1.073080 0.205645 -7.799230 -1.108848 3.816924 -4.376001 0.806436 10.446662 -23.909532 -13.421153 30.409533 -56.428461 -16.417027 31.297523 26.893552 -4.160651 -13.624663 -7.631635 -1.863541 -3.060601 -24.092950 6.707530 -30.232629 -47.970537 10.983333 -16.435374 4.243891 14.517056 6.022285 -29.149411 0.518989 -78.028310 84.508969 -80.883073 0.707620 -26.168184 9.197268 0.059081 -0.130535 0.058549 0.621262 -23.854163 -2.571590 107.357881 78.200916 115.979316 5.289887 -19.123226 -5.526508 0.084679 0.250087 0.043570
2.386358 145.642886 49.781397 176.082987 -48.317961 -3.043609 3.832772 28.300175 3.525000 0.530813 5.191590 0.520056 0.862116 8.178165 0.822804 2.826244 22.812303 2.760347 -0.059979 17.026144 -1.061524 0.243794 -7.770455 -1.104429 3.821642 -4.382293 0.806748 10.470196 -23.908650 -13.406272 30.500005 -56.366995 -16.555260 31.276718 26.885138 -4.248726 -13.592159 -7.653751 -1.846845 -3.054859 -24.072534 6.643523 -30.101074 -47.931766 10.906312 -16.277887 4.064979 14.660336 5.912275 -29.181273 0.607068 -78.363772 84.493524 -81.227562 0.728242 -26.284511 9.214574 0.028812 -0.150967 0.016843 0.514411 -23.857545 -2.489410 107.300091 78.212166 115.919482 5.327008 -19.008276 -5.508434 0.046126 0.165890 0.026983
1.759878 139.846540 50.803148 176.177628 -48.300374 -3.178825 3.805094 28.289301 3.591913 0.532068 5.191639 0.518668 0.862333 8.175671 0.826173 2.825294 22.818656 2.751009 0.001630 17.084415 -1.049028 0.259080 -7.774968 -1.094742 3.824978 -4.385170 0.796278 10.489380 -23.912135 -13.378004 30.606820 -56.299752 -16.713498 31.256592 26.878535 -4.339146 -13.536278 -7.684109 -1.836989 -3.097552 -24.047299 6.620668 -29.894174 -47.901037 10.765761 -16.112702 3.878089 14.818721 5.812105 -29.215927 0.683638 -78.584989 84.491367 -81.451914 0.722198 -26.379438 9.221371 0.008199 -0.083535 0.004793 0.410232 -23.877103 -2.420402 107.297034 78.217933 115.917691 5.352252 -18.904669 -5.502756 0.020999 0.081933 0.012284
1.302156 135.660824 51.539685 176.228669 -48.290711 -3.243549 3.785434 28.287851 3.616263 0.534997 5.192896 0.517463 0.862196 8.172081 0.829173 2.822069 22.840472 2.737372 0.056270 17.099962 -1.030941 0.292463 -7.762589 -1.093554 3.829754 -4.407574 0.789993 10.494534 -23.916820 -13.353324 30.710120 -56.230651 -16.852084 31.231686 26.868806 -4.438548 -13.527394 -7.709911 -1.814762 -3.064554 -24.036695 6.535931 -29.742281 -47.851468 10.676873 -15.948562 3.681984 14.992727 5.760168 -29.237400 0.717700 -78.797640 84.483957 -81.670499 0.717535 -26.438434 9.225092 0.002772 -0.050766 0.001621 0.360569 -23.882546 -2.390553 107.249476 78.227540 115.872861 5.354785 -18.853490 -5.500658 0.016548 0.044452 0.009678
1.015877 133.016624 52.005646 176.277119 -48.277800 -3.309768 3.769553 28.280837 3.646053 0.531922 5.196397 0.515776 0.861855 8.173628 0.828524 2.826523 22.838561 2.738220 0.099425 17.119056 -1.025260 0.335779 -7.744609 -1.095709 3.825529 -4.412709 0.776739 10.508882 -23.917833 -13.332269 30.795287 -56.161405 -16.974140 31.200145 26.852936 -4.548121 -13.500260 -7.730255 -1.808768 -3.014580 -24.011715 6.388403 -29.653021 -47.785126 10.639384 -15.783550 3.476005 15.178724 5.708185 -29.258778 0.754353 -78.942615 84.474895 -81.817915 0.723880 -26.490444 9.225096 0.002532 -0.020174 0.001480 0.311186 -23.892978 -2.357272 107.211672 78.235941 115.838593 5.361787 -18.812280 -5.498337 0.006967 0.015806 0.004074
0.855375 131.563101 52.260512 176.290468 -48.273327 -3.326175 3.764621 28.278348 3.652127 0.533691 5.203226 0.511816 0.862225 8.175016 0.828599 2.830136 22.839602 2.739954 0.130676 17.126163 -1.018737 0.390460 -7.726036 -1.100590 3.824540 -4.427120 0.760015 10.519495 -23.905325 -13.294377 30.877203 -56.092635 -17.105750 31.157209 26.833689 -4.666385 -13.438529 -7.769133 -1.801946 -3.011832 -23.975839 6.274858 -29.516240 -47.728198 10.550840 -15.607710 3.258976 15.376782 5.696806 -29.264739 0.764599 -79.000127 84.471990 -81.878236 0.714571 -26.519862 9.226048 0.001296 -0.013931 0.000758 0.292466 -23.898866 -2.354086 107.195468 78.233832 115.819691 5.361855 -18.790058 -5.491381 0.006350 0.009548 0.003713
0.779007 130.871635 52.380930 176.299874 -48.271327 -3.339474 3.768292 28.283198 3.660331 0.533781 5.203933 0.511545 0.865794 8.184918 0.828147 2.830117 22.837302 2.740538 0.137904 17.115734 -1.012455 0.470942 -7.701259 -1.111569 3.826427 -4.449692 0.745035 10.529894 -23.870358 -13.243687 30.967642 -56.033573 -17.266260 31.112748 26.793816 -4.724942 -13.409701 -7.803989 -1.787498 -3.014851 -23.952427 6.220905 -29.306618 -47.688000 10.405589 -15.423858 3.031903 15.583414 5.690823 -29.267914 0.772693 -79.032497 84.462999 -81.908033 0.715885 -26.528156 9.226852 0.002480 -0.008032 0.001450 0.279137 -23.904160 -2.352877 107.191669 78.230983 115.815863 5.365536 -18.776962 -5.490294 0.005827 0.004156 0.003407
0.745529 130.587804 52.430287 176.311516 -48.261579 -3.346028 3.764102 28.283231 3.659980 0.533857 5.204881 0.511570 0.865597 8.188075 0.826056 2.834048 22.839319 2.742315 0.179340 17.120597 -1.006446 0.524487 -7.692713 -1.113848 3.828492 -4.474896 0.729077 10.526953 -23.848202 -13.208636 31.008496 -56.005520 -17.343811 31.051007 26.800778 -4.871434 -13.377240 -7.845245 -1.772437 -3.019144 -23.922949 6.163252 -29.111943 -47.646220 10.276688 -15.240119 2.796408 15.792721 5.688372 -29.277430 0.770365 -79.061635 84.461248 -81.935971 0.706988 -26.537699 9.228137 0.003727 -0.005094 0.002179 0.262041 -23.922074 -2.363967 107.199953 78.232627 115.818002 5.380994 -18.759472 -5.489663 0.003417 -0.001239 0.001998
0.734794 130.487923 52.448139 176.309387 -48.247190 -3.352868 3.772748 28.277298 3.664903 0.535418 5.220113 0.511302 0.865477 8.181979 0.829767 2.835419 22.837874 2.745532 0.287428 17.150064 -0.993736 0.526410 -7.707456 -1.107234 3.833996 -4.504472 0.686095 10.510456 -23.830359 -13.150722 31.038646 -55.980042 -17.405930 30.967954 26.799868 -5.016498 -13.349192 -7.884875 -1.761319 -2.984391 -23.892311 6.064225 -29.001175 -47.591958 10.218506 -15.059341 2.551728 15.999345 5.688998 -29.293642 0.780660 -78.994132 84.462339 -81.874520 0.701040 -26.536075 9.235171 0.000195 -0.003393 0.000114 0.254997 -23.941654 -2.358133 107.201364 78.232058 115.819336 5.376155 -18.750730 -5.486414 0.000802 -0.001724 0.000469
0.730537 130.459148 52.452300 176.312953 -48.239574 -3.359906 3.772665 28.281438 3.668542 0.535630 5.221606 0.510975 0.865331 8.183823 0.830613 2.835963 22.831575 2.746347 0.316643 17.153538 -0.990188 0.619280 -7.686432 -1.116461 3.839648 -4.518444 0.663068 10.499223 -23.824359 -13.123399 31.055582 -55.933487 -17.454226 30.875507 26.769210 -5.138912 -13.338477 -7.901859 -1.758025 -2.867832 -23.854667 5.891045 -29.084976 -47.542262 10.304668 -14.855078 2.321338 16.203552 5.686122 -29.302191 0.785197 -78.983436 84.462473 -81.865940 0.698043 -26.535640 9.235567 -0.000950 -0.002529 -0.000555 0.247477 -23.954200 -2.356708 107.201122 78.229650 115.821049 5.366356 -18.736929 -5.479649 0.001575 -0.000495 0.000921
0.728792 130.452190 52.452643 176.320092 -48.231285 -3.371217 3.771196 28.286239 3.673110 0.535849 5.221274 0.510436 0.864755 8.185587 0.831680 2.836340 22.826127 2.748623 0.347857 17.157142 -0.986895 0.716713 -7.662132 -1.124228 3.843672 -4.530151 0.649909 10.509074 -23.810490 -13.095159 31.080218 -55.887433 -17.539615 30.780971 26.737227 -5.253560 -13.295158 -7.946555 -1.746768 -2.804768 -23.785733 5.745663 -29.220762 -47.527671 10.417063 -14.605385 2.132949 16.411723 5.680062 -29.310741 0.789931 -78.972935 84.464937 -81.858914 0.703172 -26.539157 9.235516 -0.000890 -0.003624 -0.000520 0.237923 -23.965607 -2.353318 107.196578 78.226444 115.818347 5.362811 -18.729760 -5.480059 0.002865 0.000030 0.001675
